PathFileType	4	(X/Y/Z)	RBDS03static.trc
DataRate	CameraRate	NumFrames	NumMarkers	Units	OrigDataRate	OrigDataStartFrame	OrigNumFrames
150.000000	150.000000	4	48	mm	150.000000	18	150
Frame#	Time	L.Ankle			L.Ankle.Medial			L.ASIS			L.GTR			L.Heel.Bottom			L.Heel.Lateral			L.Heel.Top			L.HF			L.Iliac.Crest			L.Knee			L.Knee.Medial			L.MT1			L.MT2			L.MT5			L.PSIS			L.Shank.Bottom.Lateral			L.Shank.Bottom.Medial			L.Shank.Top.Lateral			L.Shank.Top.Medial			L.Thigh.Bottom.Lateral			L.Thigh.Bottom.Medial			L.Thigh.Top.Lateral			L.Thigh.Top.Medial			L.TT			R.Ankle			R.Ankle.Medial			R.ASIS			R.GTR			R.Heel.Bottom			R.Heel.Lateral			R.Heel.Top			R.HF			R.Iliac.Crest			R.Knee			R.Knee.Medial			R.MT1			R.MT2			R.MT5			R.PSIS			R.Shank.Bottom.Lateral			R.Shank.Bottom.Medial			R.Shank.Top.Lateral			R.Shank.Top.Medial			R.Thigh.Bottom.Lateral			R.Thigh.Bottom.Medial			R.Thigh.Top.Lateral			R.Thigh.Top.Medial			R.TT			
		X1	Y1	Z1	X2	Y2	Z2	X3	Y3	Z3	X4	Y4	Z4	X5	Y5	Z5	X6	Y6	Z6	X7	Y7	Z7	X8	Y8	Z8	X9	Y9	Z9	X10	Y10	Z10	X11	Y11	Z11	X12	Y12	Z12	X13	Y13	Z13	X14	Y14	Z14	X15	Y15	Z15	X16	Y16	Z16	X17	Y17	Z17	X18	Y18	Z18	X19	Y19	Z19	X20	Y20	Z20	X21	Y21	Z21	X22	Y22	Z22	X23	Y23	Z23	X24	Y24	Z24	X25	Y25	Z25	X26	Y26	Z26	X27	Y27	Z27	X28	Y28	Z28	X29	Y29	Z29	X30	Y30	Z30	X31	Y31	Z31	X32	Y32	Z32	X33	Y33	Z33	X34	Y34	Z34	X35	Y35	Z35	X36	Y36	Z36	X37	Y37	Z37	X38	Y38	Z38	X39	Y39	Z39	X40	Y40	Z40	X41	Y41	Z41	X42	Y42	Z42	X43	Y43	Z43	X44	Y44	Z44	X45	Y45	Z45	X46	Y46	Z46	X47	Y47	Z47	X48	Y48	Z48	

19	0.12	716.8914184570313	111.4340438842773	1045.434448242188	727.4719848632813	119.7700805664063	1125.796752929688	849.37841796875	1064.595703125	1104.1689453125	782.7767333984375	959.86083984375	1050.354614257813	638.2343139648438	42.63846206665039	1086.636474609375	674.6699829101563	58.12064361572266	1043.20849609375	649.2007446289063	92.83490753173828	1089.812744140625	722.1846313476563	496.421630859375	1048.151977539063	766.9803466796875	1121.917846679688	1064.644775390625	721.2513427734375	552.3585815429688	1055.862060546875	722.5147705078125	536.193115234375	1170.013305664063	859.2315063476563	62.10991287231445	1140.598999023438	867.0778198242188	73.49031066894531	1099.846313476563	835.184326171875	55.37073135375977	1031.8671875	688.0354614257813	1080.736694335938	1181.784545898438	710.5516357421875	186.4338836669922	1043.738037109375	666.9338989257813	185.7229766845703	1076.489013671875	701.8334350585938	265.4624633789063	1032.702880859375	659.1548461914063	265.6803283691406	1065.0361328125	736.5762329101563	644.088134765625	1048.973999023438	677.52197265625	650.3561401367188	1093.355834960938	738.5921020507813	754.0706787109375	1039.476440429688	684.0725708007813	760.3405151367188	1083.421875	773.0476684570313	476.9002380371094	1094.8251953125	708.582275390625	110.3005828857422	1411.289672851563	728.1002197265625	127.4988555908203	1333.454833984375	872.83203125	1071.953125	1316.794799804688	813.3306274414063	968.0345458984375	1386.129028320313	631.6272583007813	45.2032356262207	1364.958129882813	668.6992797851563	66.59029388427734	1410.968383789063	641.860107421875	93.80683135986328	1364.43212890625	724.5738525390625	498.9145812988281	1410.084838867188	806.2769165039063	1134.426879882813	1363.141235351563	728.2484130859375	565.7189331054688	1400.13623046875	730.3723754882813	541.6248779296875	1286.347290039063	844.8580322265625	58.12073135375977	1322.975463867188	861.917724609375	75.80294036865234	1371.188842773438	824.9553833007813	51.37971878051758	1437.76416015625	698.0797729492188	1084.167846679688	1264.326416015625	694.7258911132813	179.9058227539063	1413.348022460938	662.1685791015625	183.3451080322266	1373.0888671875	688.4986572265625	264.195556640625	1423.138061523438	655.8463134765625	263.5407409667969	1380.0888671875	766.152099609375	674.1853637695313	1406.638427734375	699.7145385742188	675.5777587890625	1375.216430664063	764.7991333007813	785.2120971679688	1409.33203125	703.7058715820313	785.8589477539063	1375.96826171875	778.8978271484375	478.3448486328125	1368.780639648438	
20	0.1266666666666667	716.885009765625	111.4382476806641	1045.43408203125	727.4791870117188	119.7812957763672	1125.796752929688	849.3570556640625	1064.6015625	1104.1552734375	782.7590942382813	959.8619384765625	1050.339477539063	638.232177734375	42.63424301147461	1086.641357421875	674.6603393554688	58.11928176879883	1043.213989257813	649.1951293945313	92.83802795410156	1089.814208984375	722.1697387695313	496.4203186035156	1048.144409179688	766.957275390625	1121.942749023438	1064.632080078125	721.2514038085938	552.3486328125	1055.86181640625	722.51806640625	536.1925659179688	1170.004760742188	859.2265014648438	62.10647964477539	1140.586181640625	867.0686645507813	73.5018310546875	1099.842895507813	835.1746826171875	55.37451553344727	1031.85888671875	688.009521484375	1080.727661132813	1181.786499023438	710.542724609375	186.4303283691406	1043.73486328125	666.9255981445313	185.7217407226563	1076.5087890625	701.8233032226563	265.4609069824219	1032.70263671875	659.1495361328125	265.6732788085938	1065.041748046875	736.6740112304688	644.0993041992188	1048.9580078125	677.5067749023438	650.3521728515625	1093.356323242188	738.5738525390625	754.0743408203125	1039.4765625	684.051025390625	760.3331909179688	1083.416381835938	773.0416870117188	476.8973999023438	1094.822631835938	708.5861206054688	110.2985229492188	1411.289184570313	728.1076049804688	127.4996032714844	1333.451049804688	872.8152465820313	1071.957397460938	1316.784057617188	813.317138671875	968.0399780273438	1386.114379882813	631.6297607421875	45.20402908325195	1364.955200195313	668.7027587890625	66.58525848388672	1410.966430664063	641.859619140625	93.81061553955078	1364.428588867188	724.57666015625	498.9123229980469	1410.07080078125	806.2512817382813	1134.440673828125	1363.139282226563	728.2402954101563	565.7167358398438	1400.128051757813	730.3936157226563	541.62060546875	1286.341430664063	844.8554077148438	58.11922836303711	1322.975463867188	861.9151000976563	75.79826354980469	1371.186767578125	824.9551391601563	51.38149642944336	1437.759399414063	698.0584716796875	1084.166748046875	1264.321044921875	694.7152709960938	179.9167022705078	1413.34912109375	662.16552734375	183.3451690673828	1373.090087890625	688.494140625	264.1923522949219	1423.134765625	655.8490600585938	263.5424194335938	1380.092895507813	766.140869140625	674.182861328125	1406.621826171875	699.7147216796875	675.5751342773438	1375.214477539063	764.7911376953125	785.23046875	1409.320068359375	703.6911010742188	785.8592529296875	1375.974853515625	778.8924560546875	478.3380432128906	1368.770751953125	
21	0.1333333333333333	716.8824462890625	111.4368362426758	1045.432495117188	727.4691772460938	119.7800674438477	1125.797241210938	849.32763671875	1064.608032226563	1104.144775390625	782.7141723632813	959.86474609375	1050.341064453125	638.230712890625	42.63319396972656	1086.645751953125	674.6513671875	58.12231063842773	1043.210693359375	649.1895141601563	92.83530426025391	1089.805419921875	722.1620483398438	496.4280700683594	1048.140991210938	766.9395751953125	1121.95947265625	1064.632202148438	721.2263793945313	552.362548828125	1055.846557617188	722.5071411132813	536.191650390625	1170.008056640625	859.2318115234375	62.11962890625	1140.597412109375	867.080322265625	73.50163269042969	1099.841918945313	835.1788940429688	55.36875915527344	1031.867919921875	687.9872436523438	1080.735595703125	1181.7841796875	710.5357666015625	186.4425964355469	1043.742065429688	666.9193725585938	185.7170867919922	1076.51025390625	701.8292846679688	265.4556274414063	1032.712524414063	659.1364135742188	265.6778869628906	1065.05615234375	736.6513671875	644.0953369140625	1048.949584960938	677.4994506835938	650.357177734375	1093.353759765625	738.5614624023438	754.0684204101563	1039.4697265625	684.0368041992188	760.335205078125	1083.416870117188	773.0416259765625	476.902587890625	1094.812866210938	708.5813598632813	110.2984161376953	1411.27734375	728.1002197265625	127.5023574829102	1333.449340820313	872.7988891601563	1071.962158203125	1316.777954101563	813.3040771484375	968.0407104492188	1386.111206054688	631.6344604492188	45.20141983032227	1364.966552734375	668.7001342773438	66.58686828613281	1410.967529296875	641.85888671875	93.81010437011719	1364.427612304688	724.579345703125	498.90380859375	1410.070068359375	806.2382202148438	1134.441284179688	1363.12744140625	728.2415771484375	565.7280883789063	1400.129272460938	730.4002685546875	541.6251220703125	1286.325927734375	844.8560791015625	58.11917877197266	1322.966918945313	861.9158325195313	75.80147552490234	1371.192138671875	824.9556274414063	51.37974166870117	1437.753173828125	698.041015625	1084.16259765625	1264.318481445313	694.7178344726563	179.9124908447266	1413.346069335938	662.1707153320313	183.3426666259766	1373.086059570313	688.5027465820313	264.1966552734375	1423.13671875	655.84228515625	263.536376953125	1380.085693359375	766.1517944335938	674.1865844726563	1406.608154296875	699.7042846679688	675.5768432617188	1375.199829101563	764.7847290039063	785.2339477539063	1409.310913085938	703.6929931640625	785.861572265625	1375.956176757813	778.905029296875	478.3463439941406	1368.762573242188	
22	0.14	716.87548828125	111.4418716430664	1045.420532226563	727.4724731445313	119.7811889648438	1125.807739257813	849.2986450195313	1064.614501953125	1104.126220703125	782.6820678710938	959.869873046875	1050.31298828125	638.220947265625	42.6346435546875	1086.64501953125	674.649169921875	58.12037658691406	1043.2119140625	649.1875	92.83946228027344	1089.800170898438	722.1422119140625	496.4178466796875	1048.137329101563	766.907470703125	1121.975708007813	1064.635620117188	721.2171020507813	552.3546752929688	1055.853271484375	722.5199584960938	536.183837890625	1170.002197265625	859.2173461914063	62.10579681396484	1140.592529296875	867.0703735351563	73.50273132324219	1099.838500976563	835.1696166992188	55.3765869140625	1031.866333007813	687.9699096679688	1080.722045898438	1181.779052734375	710.5256958007813	186.4290008544922	1043.735595703125	666.9180297851563	185.7184906005859	1076.527587890625	701.81298828125	265.4684143066406	1032.712646484375	659.1370849609375	265.67822265625	1065.063110351563	736.642333984375	644.0993041992188	1048.95263671875	677.4859008789063	650.3588256835938	1093.353393554688	738.5294799804688	754.070068359375	1039.467529296875	684.0175170898438	760.3386840820313	1083.423095703125	773.0213623046875	476.9063110351563	1094.79443359375	708.5826416015625	110.3020172119141	1411.284423828125	728.093994140625	127.5022583007813	1333.444458007813	872.781982421875	1071.971069335938	1316.772216796875	813.3042602539063	968.0449829101563	1386.095458984375	631.6273193359375	45.21036911010742	1364.949340820313	668.6986083984375	66.59867095947266	1410.968139648438	641.854248046875	93.82063293457031	1364.424926757813	724.5776977539063	498.9063415527344	1410.056884765625	806.2156982421875	1134.439819335938	1363.120361328125	728.2454223632813	565.7313232421875	1400.100830078125	730.3865356445313	541.6202392578125	1286.330322265625	844.8544311523438	58.11440658569336	1322.9638671875	861.9119873046875	75.79767608642578	1371.186157226563	824.949462890625	51.3880500793457	1437.763916015625	698.0247802734375	1084.1552734375	1264.309936523438	694.728515625	179.9150543212891	1413.350830078125	662.1700439453125	183.3509063720703	1373.083129882813	688.5012817382813	264.2015686035156	1423.130004882813	655.8511962890625	263.541259765625	1380.0859375	766.1504516601563	674.1939697265625	1406.596801757813	699.7062377929688	675.5718994140625	1375.193115234375	764.7843627929688	785.23046875	1409.295532226563	703.6898193359375	785.8629760742188	1375.953979492188	778.9033813476563	478.341796875	1368.754272460938	
